<svg xmlns="http://www.w3.org/2000/svg" viewBox="0 0 32 32" fill="none">
  <!-- Background -->
  <rect width="32" height="32" rx="6" fill="#1f2937"/>
  
  <!-- Grid pattern representing a focus: flow dashboard -->
  <rect x="4" y="4" width="4" height="4" rx="1" fill="#06b6d4"/>
  <rect x="10" y="4" width="4" height="4" rx="1" fill="#10b981"/>
  <rect x="16" y="4" width="4" height="4" rx="1" fill="#f59e0b"/>
  <rect x="22" y="4" width="6" height="4" rx="1" fill="#ef4444"/>
  
  <rect x="4" y="10" width="6" height="4" rx="1" fill="#8b5cf6"/>
  <rect x="12" y="10" width="8" height="4" rx="1" fill="#ec4899"/>
  <rect x="22" y="10" width="6" height="4" rx="1" fill="#6366f1"/>
  
  <rect x="4" y="16" width="8" height="4" rx="1" fill="#14b8a6"/>
  <rect x="14" y="16" width="6" height="4" rx="1" fill="#f97316"/>
  <rect x="22" y="16" width="6" height="4" rx="1" fill="#84cc16"/>
  
  <rect x="4" y="22" width="12" height="6" rx="1" fill="#3b82f6"/>
  <rect x="18" y="22" width="10" height="6" rx="1" fill="#e11d48"/>
</svg>